<svg xmlns="http://www.w3.org/2000/svg" width="32" height="32" fill="none"><path fill="#F6EDE5" fill-rule="evenodd" d="M3 13.5C3 6.594 8.823 1 16 1c7.18 0 13 5.6 13 12.498.003 3.452-1.452 6.577-3.806 8.837L16 31l-9.191-8.662C4.455 20.075 3 16.95 3 13.5Z" clip-rule="evenodd"/><path fill="#F97836" fill-rule="evenodd" d="M10.5 14.003c0-3.943 2.212-7.173 5.027-7.503.558 2.549.39 5.29-.654 7.885a13.46 13.46 0 0 0-.865 6.636c-2.052-1.094-3.508-3.82-3.508-7.018Zm6.047 7.497a10.812 10.812 0 0 1 .585-6.155 15.997 15.997 0 0 0 1.166-5.98c0-.776-.075-1.55-.19-2.32 1.991 1.133 3.392 3.821 3.392 6.958 0 3.909-2.172 7.122-4.953 7.497Z" clip-rule="evenodd"/></svg>