<svg aria-hidden="true" style="position: absolute; width: 0; height: 0; overflow: hidden;" version="1.1" xmlns="http://www.w3.org/2000/svg" xmlns:xlink="http://www.w3.org/1999/xlink">
<defs>
<symbol id="icon-instagram" viewBox="0 0 32 32">
<path fill="#f97836" style="fill: var(--color1, #f97836)" d="M16.005 7.784c-0 0-0.001 0-0.001 0-4.534 0-8.209 3.675-8.209 8.209 0 0 0 0.001 0 0.001v-0c0 0 0 0.001 0 0.001 0 4.534 3.675 8.209 8.209 8.209 0 0 0.001 0 0.001 0h-0c0 0 0.001 0 0.001 0 4.534 0 8.209-3.675 8.209-8.209 0-0 0-0.001 0-0.001v0c0-0 0-0.001 0-0.001 0-4.534-3.675-8.209-8.209-8.209-0 0-0.001 0-0.001 0h0zM16.005 21.324c-2.942-0.001-5.327-2.386-5.327-5.328s2.385-5.328 5.328-5.328c2.942 0 5.327 2.385 5.328 5.327v0c0 0.001 0 0.002 0 0.003 0 2.942-2.385 5.327-5.327 5.327-0.001 0-0.002 0-0.003 0h0z"></path>
<path fill="#f97836" style="fill: var(--color1, #f97836)" d="M22.597 0.101c-2.944-0.137-10.236-0.131-13.183 0-2.589 0.121-4.873 0.747-6.715 2.588-3.077 3.077-2.684 7.224-2.684 13.305 0 6.224-0.347 10.275 2.684 13.305 3.089 3.088 7.296 2.684 13.305 2.684 6.165 0 8.293 0.004 10.473-0.84 2.964-1.151 5.201-3.8 5.42-8.559 0.139-2.945 0.131-10.236 0-13.183-0.264-5.617-3.279-9.024-9.301-9.301zM27.257 27.264c-2.017 2.017-4.816 1.837-11.291 1.837-6.667 0-9.34 0.099-11.291-1.857-2.247-2.236-1.84-5.827-1.84-11.271 0-7.367-0.756-12.672 6.637-13.051 1.699-0.060 2.199-0.080 6.475-0.080l0.060 0.040c7.105 0 12.68-0.744 13.015 6.648 0.076 1.687 0.093 2.193 0.093 6.463-0.001 6.589 0.124 9.279-1.859 11.271z"></path>
<path fill="#f97836" style="fill: var(--color1, #f97836)" d="M24.541 9.379c1.060 0 1.919-0.859 1.919-1.919s-0.859-1.919-1.919-1.919v0c-1.060 0-1.919 0.859-1.919 1.919s0.859 1.919 1.919 1.919v0z"></path>
</symbol>
<symbol id="icon-point" viewBox="0 0 32 32">
<path fill="#f6ede5" style="fill: var(--color2, #f6ede5)" d="M3 13.5c0 3.451 1.455 6.575 3.808 8.837l9.192 8.663 9.193-8.664c2.353-2.261 3.809-5.385 3.807-8.839 0-6.897-5.82-12.497-13-12.497-7.176 0-13 5.593-13 12.5zM10.5 14.003c0-3.943 2.212-7.173 5.027-7.503 0.2 0.867 0.315 1.863 0.315 2.886 0 1.801-0.356 3.52-1 5.089l0.032-0.089c-0.61 1.481-0.965 3.201-0.965 5.003 0 0.575 0.036 1.142 0.106 1.699l-0.007-0.066c-2.052-1.093-3.508-3.82-3.508-7.019zM16.547 21.5c-0.131-0.63-0.205-1.355-0.205-2.096 0-1.463 0.29-2.858 0.817-4.13l-0.026 0.072c0.776-1.929 1.165-3.957 1.165-5.98 0-0.777-0.075-1.551-0.189-2.32 1.991 1.133 3.392 3.821 3.392 6.957 0 3.909-2.173 7.123-4.953 7.497z"></path>
<path fill="#f97836" style="fill: var(--color1, #f97836)" d="M10.5 14.003c0-3.943 2.212-7.173 5.027-7.503 0.2 0.867 0.315 1.863 0.315 2.886 0 1.801-0.356 3.52-1 5.089l0.032-0.089c-0.61 1.481-0.965 3.201-0.965 5.003 0 0.575 0.036 1.142 0.106 1.699l-0.007-0.066c-2.052-1.093-3.508-3.82-3.508-7.019zM16.547 21.5c-0.131-0.63-0.205-1.355-0.205-2.096 0-1.463 0.29-2.858 0.817-4.13l-0.026 0.072c0.776-1.929 1.165-3.957 1.165-5.98 0-0.777-0.075-1.551-0.189-2.32 1.991 1.133 3.392 3.821 3.392 6.957 0 3.909-2.173 7.123-4.953 7.497z"></path>
</symbol>

<symbol id="icon-arrowLeft" viewBox="0 0 32 32">
<path fill="#fff" style="fill: var(--color1, #fff)" d="M30.48 18.491h-25.52l4.781 4.922c1.373 1.414-0.688 3.536-2.059 2.122l-7.259-7.486c-0.261-0.274-0.422-0.645-0.422-1.054s0.161-0.781 0.423-1.055l-0.001 0.001 7.261-7.485c0.262-0.28 0.634-0.454 1.046-0.454 0.002 0 0.005 0 0.007 0h-0c1.307 0 1.949 1.64 1.006 2.574l-4.792 4.922h25.603c2.014 0.102 1.864 3.098-0.075 2.995z"></path>
</symbol>
<symbol id="icon-arrowRight" viewBox="0 0 32 32">
<path fill="#fff" style="fill: var(--color1, #fff)" d="M1.52 18.491h25.52l-4.781 4.922c-1.373 1.414 0.688 3.536 2.059 2.122l7.261-7.488c0.261-0.274 0.422-0.645 0.422-1.054s-0.161-0.781-0.423-1.055l0.001 0.001-7.261-7.485c-0.262-0.279-0.633-0.453-1.045-0.453-0.003 0-0.007 0-0.010 0h0c-1.307 0-1.949 1.64-1.006 2.574l4.792 4.922h-25.603c-2.014 0.102-1.864 3.098 0.075 2.995z"></path>
</symbol>
<symbol id="icon-EllipseBig" viewBox="0 0 34 32">
<path fill="#f97836" style="fill: var(--color2, #f97836); stroke: var(--color1, #fff)" stroke="#fff" stroke-linejoin="miter" stroke-linecap="butt" stroke-miterlimit="4" stroke-width="8" d="M29 16c0 6.627-5.373 12-12 12s-12-5.373-12-12c0-6.627 5.373-12 12-12s12 5.373 12 12z"></path>
</symbol>
<symbol id="icon-Ellipse" viewBox="0 0 37 32">
<path fill="#fff" style="fill: var(--color1, #fff)" d="M34.667 16c0 8.837-7.163 16-16 16s-16-7.163-16-16c0-8.837 7.163-16 16-16s16 7.163 16 16z"></path>
</symbol>
<symbol id="icon-Cafe-in-Lausanne-icon" viewBox="0 0 32 32">
<path fill="#f6ede5" style="fill: var(--color1, #f6ede5)" d="M3 13.5c0-6.906 5.823-12.5 13-12.5 7.18 0 13 5.6 13 12.498 0.003 3.452-1.452 6.577-3.806 8.837l-9.194 8.665-9.191-8.662c-2.354-2.263-3.809-5.388-3.809-8.838z"></path>
<path fill="#f97836" style="fill: var(--color2, #f97836)" d="M10.5 14.003c0-3.943 2.212-7.173 5.027-7.503 0.558 2.549 0.39 5.29-0.654 7.885-0.61 1.481-0.964 3.201-0.964 5.003 0 0.576 0.036 1.143 0.106 1.699l-0.007-0.066c-2.052-1.094-3.508-3.82-3.508-7.018zM16.547 21.5c-0.131-0.631-0.205-1.355-0.205-2.097 0-1.463 0.29-2.857 0.817-4.13l-0.026 0.072c0.736-1.769 1.164-3.824 1.166-5.979v-0.001c0-0.776-0.075-1.55-0.19-2.32 1.991 1.133 3.392 3.821 3.392 6.958 0 3.909-2.172 7.122-4.953 7.497z"></path>
</symbol>

</defs>
</svg>
