<!-- Generated by IcoMoon.io -->
<svg version="1.1" xmlns="http://www.w3.org/2000/svg" width="32" height="32" viewBox="0 0 32 32">
<title>instagram</title>
<path fill="#f97836" d="M16.005 7.784c-0 0-0.001 0-0.001 0-4.534 0-8.209 3.675-8.209 8.209 0 0 0 0.001 0 0.001v-0c0 0 0 0.001 0 0.001 0 4.534 3.675 8.209 8.209 8.209 0 0 0.001 0 0.001 0h-0c0 0 0.001 0 0.001 0 4.534 0 8.209-3.675 8.209-8.209 0-0 0-0.001 0-0.001v0c0-0 0-0.001 0-0.001 0-4.534-3.675-8.209-8.209-8.209-0 0-0.001 0-0.001 0h0zM16.005 21.324c-2.942-0.001-5.327-2.386-5.327-5.328s2.385-5.328 5.328-5.328c2.942 0 5.327 2.385 5.328 5.327v0c0 0.001 0 0.002 0 0.003 0 2.942-2.385 5.327-5.327 5.327-0.001 0-0.002 0-0.003 0h0z"></path>
<path fill="#f97836" d="M22.597 0.101c-2.944-0.137-10.236-0.131-13.183 0-2.589 0.121-4.873 0.747-6.715 2.588-3.077 3.077-2.684 7.224-2.684 13.305 0 6.224-0.347 10.275 2.684 13.305 3.089 3.088 7.296 2.684 13.305 2.684 6.165 0 8.293 0.004 10.473-0.84 2.964-1.151 5.201-3.8 5.42-8.559 0.139-2.945 0.131-10.236 0-13.183-0.264-5.617-3.279-9.024-9.301-9.301zM27.257 27.264c-2.017 2.017-4.816 1.837-11.291 1.837-6.667 0-9.34 0.099-11.291-1.857-2.247-2.236-1.84-5.827-1.84-11.271 0-7.367-0.756-12.672 6.637-13.051 1.699-0.060 2.199-0.080 6.475-0.080l0.060 0.040c7.105 0 12.68-0.744 13.015 6.648 0.076 1.687 0.093 2.193 0.093 6.463-0.001 6.589 0.124 9.279-1.859 11.271z"></path>
<path fill="#f97836" d="M24.541 9.379c1.060 0 1.919-0.859 1.919-1.919s-0.859-1.919-1.919-1.919v0c-1.060 0-1.919 0.859-1.919 1.919s0.859 1.919 1.919 1.919v0z"></path>
</svg>
