<!-- Generated by IcoMoon.io -->
<svg version="1.1" xmlns="http://www.w3.org/2000/svg" width="32" height="32" viewBox="0 0 32 32">
<title>point</title>
<path fill="#f6ede5" d="M3 13.5c0 3.451 1.455 6.575 3.808 8.837l9.192 8.663 9.193-8.664c2.353-2.261 3.809-5.385 3.807-8.839 0-6.897-5.82-12.497-13-12.497-7.176 0-13 5.593-13 12.5zM10.5 14.003c0-3.943 2.212-7.173 5.027-7.503 0.2 0.867 0.315 1.863 0.315 2.886 0 1.801-0.356 3.52-1 5.089l0.032-0.089c-0.61 1.481-0.965 3.201-0.965 5.003 0 0.575 0.036 1.142 0.106 1.699l-0.007-0.066c-2.052-1.093-3.508-3.82-3.508-7.019zM16.547 21.5c-0.131-0.63-0.205-1.355-0.205-2.096 0-1.463 0.29-2.858 0.817-4.13l-0.026 0.072c0.776-1.929 1.165-3.957 1.165-5.98 0-0.777-0.075-1.551-0.189-2.32 1.991 1.133 3.392 3.821 3.392 6.957 0 3.909-2.173 7.123-4.953 7.497z"></path>
<path fill="#f97836" d="M10.5 14.003c0-3.943 2.212-7.173 5.027-7.503 0.2 0.867 0.315 1.863 0.315 2.886 0 1.801-0.356 3.52-1 5.089l0.032-0.089c-0.61 1.481-0.965 3.201-0.965 5.003 0 0.575 0.036 1.142 0.106 1.699l-0.007-0.066c-2.052-1.093-3.508-3.82-3.508-7.019zM16.547 21.5c-0.131-0.63-0.205-1.355-0.205-2.096 0-1.463 0.29-2.858 0.817-4.13l-0.026 0.072c0.776-1.929 1.165-3.957 1.165-5.98 0-0.777-0.075-1.551-0.189-2.32 1.991 1.133 3.392 3.821 3.392 6.957 0 3.909-2.173 7.123-4.953 7.497z"></path>
</svg>
